<svg xmlns="http://www.w3.org/2000/svg" viewBox="0 0 200 200"><defs><style>.cls-1{fill-rule:evenodd;}</style></defs><title>LogoBlack</title><g id="Capa_2" data-name="Capa 2"><g id="Capa_1-2" data-name="Capa 1"><path class="cls-1" d="M200,100A100,100,0,0,1,100,200C44.67,199.78,0,155.11,0,100a100,100,0,0,1,200,0ZM99.78,132.22h17.11a2.7,2.7,0,0,0,2.67-1.55c5.33-9.34,10.88-18.89,16.22-28.23a2.85,2.85,0,0,0,0-2.66c-5.56-9.34-11.34-18.67-17.11-28a3.4,3.4,0,0,0-2.45-1.34H83.33a3.36,3.36,0,0,0-2.44,1.34c-5.78,9.33-11.56,18.66-17.11,28a2.79,2.79,0,0,0,0,2.66c5.33,9.34,10.89,18.67,16.22,28.23a3.36,3.36,0,0,0,3.11,1.77C88.89,132.22,94.44,132.22,99.78,132.22ZM32.89,99.78c7.55-.67,14.89-1.34,22-2.22A3,3,0,0,0,57.33,96c5.78-9.33,11.56-18.89,17.34-28.44a3.32,3.32,0,0,0,0-2.89c-2.89-6.67-6-13.34-8.89-20a1.93,1.93,0,0,0-2.45-1.34c-7.77.89-15.77,1.56-23.55,2.45a3.3,3.3,0,0,0-2.45,1.78c-5.33,8.66-10.44,17.33-15.77,26a3,3,0,0,0-.23,3.33c3.11,7.11,6.23,14,9.34,21.11C31.11,99.33,31.56,100.22,32.89,99.78ZM137.11,43.33c-1.55-.66-2.22.45-2.89,2q-4.33,9.68-8.66,19.34a3.23,3.23,0,0,0,.22,2.89c5.78,9.55,11.55,18.88,17.33,28.44a2.94,2.94,0,0,0,2.22,1.33c7.34.89,14.89,1.56,22.23,2.23a1.66,1.66,0,0,0,2.22-1.12c3.11-7.33,6.44-14.66,9.55-22.22a3.08,3.08,0,0,0-.22-2.44c-5.33-9.11-10.89-18-16.22-26.89a3,3,0,0,0-2-1.33C152.89,44.89,145.11,44,137.11,43.33Zm-3.33,117.11c-4.67-6.66-9.34-13.11-14-19.55a3.68,3.68,0,0,0-2.67-1.11H82.67A3.85,3.85,0,0,0,80,141.11c-4.44,6-8.67,12-12.89,18a1.74,1.74,0,0,0,0,2.45c4.45,5.77,8.89,11.55,13.56,17.11a2.74,2.74,0,0,0,2.22,1.11h34.67a3.37,3.37,0,0,0,2-.89C124.22,172.89,128.89,166.67,133.78,160.44Zm-37.56-150c-3.33-.66-6.66-2-9.78-1.55a79.3,79.3,0,0,0-28,8.89A93,93,0,0,0,33.11,36.67c2,.66,3.56,1.55,5.11,1.55,7.56-.66,15.11-1.33,22.67-2.22,2-.22,4.44-.22,6.22-1.11,9.33-4.67,18.67-9.56,28-14.45a2.54,2.54,0,0,0,1.11-1.55ZM166.44,36a1.74,1.74,0,0,0-.88-.89A90.17,90.17,0,0,0,117.33,9.33a22.67,22.67,0,0,0-6.66-.44c-2.23.22-5.34.44-6.45,2s-.44,4.67-.44,6.89a2.68,2.68,0,0,0,1.55,2.66c8.89,4.45,17.56,9.12,26.45,13.78a14.88,14.88,0,0,0,4.44,1.34c8,.88,16,1.55,23.78,2.44C162.67,38.22,164.67,37.78,166.44,36ZM10.67,77.33c-.23.45-.23.67-.45,1.11a96.08,96.08,0,0,0,2.22,51.34c1.56,5.11,5.12,8.44,8.89,12a13.49,13.49,0,0,1,2.45-1.34c2.22-.88,2.66-2.44,2.66-4.66-.66-10-.88-19.78-1.33-29.78a13.13,13.13,0,0,0-.67-2.89c-3.33-7.78-6.66-15.33-10-23.11C13.56,78.22,12.67,77.33,10.67,77.33Zm179.11,0c-2,0-3.11.45-3.78,2.23-3.33,7.77-6.89,15.55-10.22,23.55a8.8,8.8,0,0,0-.67,3.33c-.44,9.34-.89,18.45-1.33,27.78-.22,4.89-.22,4.89,4.22,6.89.44.22,1.11.45,1.33.22,2.45-2.66,5.56-5.11,6.89-8.22A86.23,86.23,0,0,0,192,90.67C191.33,86.22,190.44,81.78,189.78,77.33ZM127.11,188h.67a6.82,6.82,0,0,1,1.78-.44,92.58,92.58,0,0,0,40.22-27.12,18.54,18.54,0,0,0,4.22-8c.89-4,1.11-3.77-2.44-6a3,3,0,0,0-3.78,0l-24,15.34a24.86,24.86,0,0,0-4.45,4l-12,15.33C124.89,184.22,124.89,184.22,127.11,188ZM30.22,145.33c-1.33.67-2.66,1.56-4,2.23s-1.33,1.33-1.11,2.66c1.33,6.45,5.33,10.89,9.78,15.34,10.44,10,22.22,17.55,36,22a3.31,3.31,0,0,0,2,.22,4,4,0,0,0,.67-5.11c-4.67-6-9.56-12.23-14.23-18.23a4,4,0,0,0-1.77-1.55C48.67,157.33,40,151.56,31.11,146,31.11,145.78,30.67,145.56,30.22,145.33Z"/></g></g></svg>